<svg xmlns="http://www.w3.org/2000/svg" width="51" height="51" viewBox="0 0 51 51" fill="none">
  <path d="M12.4313 36.3375C14.2375 34.9563 16.2563 33.8672 18.4875 33.0703C20.7188 32.2734 23.0562 31.875 25.5 31.875C27.9438 31.875 30.2812 32.2734 32.5125 33.0703C34.7438 33.8672 36.7625 34.9563 38.5688 36.3375C39.8083 34.8854 40.7734 33.2385 41.4641 31.3969C42.1547 29.5552 42.5 27.5896 42.5 25.5C42.5 20.7896 40.8443 16.7786 37.5328 13.4672C34.2214 10.1557 30.2104 8.5 25.5 8.5C20.7896 8.5 16.7786 10.1557 13.4672 13.4672C10.1557 16.7786 8.5 20.7896 8.5 25.5C8.5 27.5896 8.84531 29.5552 9.53594 31.3969C10.2266 33.2385 11.1917 34.8854 12.4313 36.3375ZM25.5 27.625C23.4104 27.625 21.6484 26.9078 20.2141 25.4734C18.7797 24.0391 18.0625 22.2771 18.0625 20.1875C18.0625 18.0979 18.7797 16.3359 20.2141 14.9016C21.6484 13.4672 23.4104 12.75 25.5 12.75C27.5896 12.75 29.3516 13.4672 30.7859 14.9016C32.2203 16.3359 32.9375 18.0979 32.9375 20.1875C32.9375 22.2771 32.2203 24.0391 30.7859 25.4734C29.3516 26.9078 27.5896 27.625 25.5 27.625ZM25.5 46.75C22.5604 46.75 19.7979 46.1922 17.2125 45.0766C14.6271 43.9609 12.3781 42.4469 10.4656 40.5344C8.55312 38.6219 7.03906 36.3729 5.92344 33.7875C4.80781 31.2021 4.25 28.4396 4.25 25.5C4.25 22.5604 4.80781 19.7979 5.92344 17.2125C7.03906 14.6271 8.55312 12.3781 10.4656 10.4656C12.3781 8.55312 14.6271 7.03906 17.2125 5.92344C19.7979 4.80781 22.5604 4.25 25.5 4.25C28.4396 4.25 31.2021 4.80781 33.7875 5.92344C36.3729 7.03906 38.6219 8.55312 40.5344 10.4656C42.4469 12.3781 43.9609 14.6271 45.0766 17.2125C46.1922 19.7979 46.75 22.5604 46.75 25.5C46.75 28.4396 46.1922 31.2021 45.0766 33.7875C43.9609 36.3729 42.4469 38.6219 40.5344 40.5344C38.6219 42.4469 36.3729 43.9609 33.7875 45.0766C31.2021 46.1922 28.4396 46.75 25.5 46.75ZM25.5 42.5C27.3771 42.5 29.1479 42.2255 30.8125 41.6766C32.4771 41.1276 34 40.3396 35.3813 39.3125C34 38.2854 32.4771 37.4974 30.8125 36.9484C29.1479 36.3995 27.3771 36.125 25.5 36.125C23.6229 36.125 21.8521 36.3995 20.1875 36.9484C18.5229 37.4974 17 38.2854 15.6188 39.3125C17 40.3396 18.5229 41.1276 20.1875 41.6766C21.8521 42.2255 23.6229 42.5 25.5 42.5ZM25.5 23.375C26.4208 23.375 27.1823 23.074 27.7844 22.4719C28.3865 21.8698 28.6875 21.1083 28.6875 20.1875C28.6875 19.2667 28.3865 18.5052 27.7844 17.9031C27.1823 17.301 26.4208 17 25.5 17C24.5792 17 23.8177 17.301 23.2156 17.9031C22.6135 18.5052 22.3125 19.2667 22.3125 20.1875C22.3125 21.1083 22.6135 21.8698 23.2156 22.4719C23.8177 23.074 24.5792 23.375 25.5 23.375Z" fill="rgba(32, 89, 166, 0.70)" fill-opacity="1"/>
</svg>
