<svg width="512" height="500" viewBox="0 0 512 500" fill="none" xmlns="http://www.w3.org/2000/svg">
<path d="M405.67 463.885C396.17 463.885 388.44 456.156 388.44 446.655C388.44 437.154 396.169 429.425 405.67 429.425C415.171 429.425 422.9 437.154 422.9 446.655C422.9 456.156 415.17 463.885 405.67 463.885Z" fill="#D4E1F4"/>
<path d="M470.39 368.141H500.995V392.168H470.39V368.141ZM374.692 215.654V198.51C374.692 189.072 382.371 181.393 391.809 181.393C401.247 181.393 408.926 189.072 408.926 198.51V215.655L374.692 215.654Z" fill="#FFCC1E"/>
<path d="M474.67 433.678H500.995V459.973H474.67V433.678Z" fill="#D4E1F4"/>
<path d="M405.67 488.857C382.399 488.857 363.467 469.924 363.467 446.654C363.467 423.399 382.399 404.48 405.67 404.48C428.941 404.48 447.873 423.399 447.873 446.654C447.873 469.925 428.941 488.857 405.67 488.857ZM405.67 421.42C391.756 421.42 380.437 432.74 380.437 446.654C380.437 460.568 391.756 471.888 405.67 471.888C419.584 471.888 430.903 460.568 430.903 446.654C430.903 432.74 419.583 421.42 405.67 421.42Z" fill="#4D4D4D"/>
<path d="M364.657 329.805V245.428H421.515C452.867 245.428 478.373 270.934 478.373 302.285V329.805H364.657Z" fill="#3CD1FA"/>
<path d="M455.771 442.652L455.426 440.046C452.141 415.207 430.75 396.477 405.67 396.477C380.59 396.477 359.199 415.207 355.914 440.046L355.569 442.652H342.036V223.658H421.515C465.34 223.658 500.994 259.312 500.994 303.137V360.137H466.388C465.327 360.138 464.31 360.56 463.56 361.31C462.81 362.061 462.388 363.078 462.387 364.139V396.17C462.388 397.231 462.81 398.248 463.56 398.998C464.31 399.749 465.327 400.171 466.388 400.172H500.994V425.674H470.668C469.607 425.675 468.59 426.097 467.84 426.847C467.09 427.598 466.668 428.615 466.667 429.676V442.653H455.771V442.652ZM360.656 237.424C359.595 237.425 358.578 237.847 357.828 238.597C357.078 239.348 356.656 240.365 356.655 241.426V333.807C356.656 334.868 357.078 335.885 357.828 336.635C358.578 337.386 359.595 337.808 360.656 337.809H482.376C483.437 337.808 484.454 337.386 485.204 336.636C485.954 335.885 486.376 334.868 486.377 333.807V302.286C486.377 266.521 457.28 237.425 421.516 237.425H360.656V237.424Z" fill="#DE2A1B"/>
<path d="M11.092 433.678H37.417V459.973H11.092V433.678ZM115.657 463.885C106.157 463.885 98.427 456.156 98.427 446.655C98.427 437.154 106.156 429.425 115.657 429.425C125.142 429.425 132.859 437.154 132.859 446.655C132.859 456.156 125.142 463.885 115.657 463.885Z" fill="#D4E1F4"/>
<path d="M58.062 215.654V175.01C58.062 167.354 64.291 161.125 71.947 161.125C79.603 161.125 85.832 167.354 85.832 175.01V215.655L58.062 215.654Z" fill="#9999AE"/>
<path d="M58.062 336.75V254.328H166.847V336.75H58.062ZM146.22 320.717V312.713H78.717V320.717H146.22ZM146.22 299.541V291.537H78.717V299.541H146.22ZM146.22 278.338V270.334H78.717V278.338H146.22Z" fill="#A6151B"/>
<path d="M115.657 488.857C92.386 488.857 73.454 469.924 73.454 446.654C73.454 423.399 92.386 404.48 115.657 404.48C138.912 404.48 157.832 423.399 157.832 446.654C157.832 469.925 138.913 488.857 115.657 488.857ZM115.657 421.42C101.743 421.42 90.424 432.74 90.424 446.654C90.424 460.568 101.743 471.888 115.657 471.888C129.555 471.888 140.862 460.568 140.862 446.654C140.862 432.74 129.555 421.42 115.657 421.42Z" fill="#4D4D4D"/>
<path d="M292.487 442.652V250.326C292.486 249.265 292.064 248.248 291.314 247.498C290.564 246.747 289.547 246.325 288.486 246.324H194.773C193.712 246.325 192.695 246.747 191.945 247.497C191.195 248.248 190.773 249.265 190.772 250.326V442.652H165.73L165.385 440.046C162.102 415.207 140.723 396.477 115.657 396.477C90.577 396.477 69.186 415.207 65.901 440.046L65.556 442.652H45.419V429.675C45.4179 428.614 44.9961 427.597 44.246 426.847C43.4959 426.096 42.4789 425.674 41.418 425.673H11.092V223.658H307.587V442.652H292.487ZM54.061 246.324C53 246.325 51.9828 246.747 51.2327 247.497C50.4825 248.248 50.0608 249.265 50.06 250.326V340.752C50.0611 341.813 50.4829 342.83 51.233 343.58C51.983 344.331 53.0001 344.753 54.061 344.754H170.849C171.91 344.753 172.927 344.331 173.677 343.581C174.427 342.83 174.849 341.813 174.85 340.752V250.326C174.849 249.265 174.427 248.248 173.677 247.498C172.927 246.747 171.91 246.325 170.849 246.324H54.061Z" fill="#DE2A1B"/>
<path d="M315.589 271.422H334.033V442.652H315.589V271.422ZM198.774 442.652V254.328H284.484V442.652H198.774ZM265.615 426.646V418.642H217.672V426.646H265.615ZM265.615 389.57V381.566H217.672V389.57H265.615ZM265.615 352.492V344.488H217.672V352.492H265.615ZM265.615 315.416V307.412H217.672V315.416H265.615ZM265.615 278.338V270.334H217.672V278.338H265.615Z" fill="#A6151B"/>
<path d="M405.67 418.42C390.102 418.42 377.437 431.086 377.437 446.654C377.437 462.221 390.102 474.887 405.67 474.887C421.238 474.887 433.903 462.221 433.903 446.654C433.903 431.086 421.238 418.42 405.67 418.42ZM405.67 460.884C397.824 460.884 391.44 454.501 391.44 446.655C391.44 438.809 397.824 432.425 405.67 432.425C413.516 432.425 419.9 438.809 419.9 446.655C419.9 454.501 413.516 460.884 405.67 460.884ZM421.516 234.424H360.656C359.737 234.424 358.826 234.605 357.977 234.957C357.127 235.309 356.355 235.825 355.705 236.475C355.055 237.125 354.539 237.897 354.188 238.747C353.836 239.596 353.655 240.507 353.655 241.426V333.807C353.655 335.664 354.393 337.445 355.705 338.758C357.018 340.071 358.799 340.809 360.656 340.809H482.376C483.295 340.809 484.206 340.628 485.055 340.276C485.905 339.924 486.677 339.408 487.327 338.758C487.977 338.108 488.493 337.336 488.844 336.486C489.196 335.637 489.377 334.726 489.377 333.807V302.286C489.377 264.867 458.935 234.424 421.516 234.424ZM475.374 326.805H367.657V248.428H421.515C451.213 248.428 475.373 272.588 475.373 302.285V326.805H475.374ZM115.657 418.42C100.089 418.42 87.424 431.086 87.424 446.654C87.424 462.221 100.089 474.887 115.657 474.887C131.209 474.887 143.862 462.221 143.862 446.654C143.862 431.086 131.21 418.42 115.657 418.42ZM115.657 460.884C107.811 460.884 101.427 454.501 101.427 446.655C101.427 438.809 107.811 432.425 115.657 432.425C123.488 432.425 129.859 438.809 129.859 446.655C129.859 454.501 123.488 460.884 115.657 460.884Z" fill="black"/>
<path d="M421.516 212.654H419.929V198.509C419.929 183.004 407.315 170.389 391.809 170.389C376.303 170.389 363.689 183.004 363.689 198.509V212.654H338.035C337.116 212.654 336.205 212.835 335.356 213.187C334.506 213.539 333.734 214.055 333.084 214.705C332.434 215.355 331.918 216.127 331.567 216.977C331.215 217.826 331.034 218.737 331.034 219.656V260.418H318.59V219.656C318.59 217.799 317.852 216.018 316.54 214.705C315.227 213.392 313.446 212.654 311.589 212.654H96.835V184.776L426.296 96.483L428.529 104.821C428.767 105.709 429.177 106.542 429.737 107.272C430.296 108.002 430.994 108.614 431.791 109.074C432.587 109.534 433.466 109.832 434.378 109.952C435.289 110.072 436.216 110.011 437.104 109.773L486.398 96.564C487.286 96.3262 488.119 95.9158 488.848 95.3562C489.578 94.7966 490.19 94.0988 490.65 93.3026C491.109 92.5064 491.408 91.6274 491.528 90.7159C491.648 89.8043 491.587 88.8781 491.349 87.99L469.21 5.33101C468.729 3.53805 467.556 2.00931 465.949 1.08075C464.342 0.152188 462.431 -0.100214 460.638 0.379012L411.345 13.56C409.551 14.0403 408.022 15.2133 407.092 16.8211C406.163 18.429 405.911 20.34 406.39 22.134L408.625 30.483L302.725 58.862C302.684 58.872 302.643 58.876 302.603 58.886C302.563 58.897 302.527 58.914 302.487 58.926L124.604 106.596C124.56 106.607 124.516 106.61 124.472 106.622C124.428 106.634 124.388 106.653 124.345 106.665L5.19299 138.597C3.39999 139.077 1.87116 140.25 0.942704 141.857C0.014249 143.465 -0.237799 145.375 0.241989 147.168L14.274 199.638C14.5113 200.527 14.9215 201.36 15.481 202.09C16.0404 202.82 16.7383 203.432 17.5347 203.893C18.331 204.353 19.2103 204.651 20.1221 204.772C21.034 204.892 21.9606 204.831 22.849 204.593L47.059 198.109V212.654H7.08999C6.17052 212.654 5.26006 212.835 4.41059 213.187C3.56113 213.539 2.7893 214.055 2.13918 214.705C1.48907 215.355 0.973396 216.127 0.621622 216.977C0.269847 217.826 0.088858 218.737 0.0889894 219.656V463.975C0.0889894 465.832 0.82656 467.613 2.13947 468.926C3.45239 470.239 5.23312 470.977 7.08999 470.977H41.418C42.3375 470.977 43.2479 470.796 44.0974 470.444C44.9469 470.092 45.7187 469.576 46.3688 468.926C47.0189 468.276 47.5346 467.504 47.8864 466.654C48.2381 465.805 48.4191 464.894 48.419 463.975V453.658H62.926C66.366 479.697 88.694 499.862 115.657 499.862C142.606 499.862 164.921 479.696 168.36 453.658H352.939C356.379 479.697 378.707 499.862 405.67 499.862C432.633 499.862 454.96 479.696 458.401 453.658H463.667V463.975C463.667 465.832 464.405 467.613 465.717 468.926C467.03 470.239 468.811 470.977 470.668 470.977H504.996C505.915 470.977 506.826 470.796 507.675 470.444C508.525 470.092 509.297 469.576 509.947 468.926C510.597 468.276 511.113 467.504 511.464 466.654C511.816 465.805 511.997 464.894 511.997 463.975V303.136C511.998 253.245 471.408 212.654 421.516 212.654ZM457.495 15.714L476.012 84.85L440.244 94.435L421.728 25.279L457.495 15.714ZM412.247 44.01L422.675 82.956L409.679 86.439L377.209 53.399L412.247 44.01ZM367.484 63.483L394.138 90.604L357.969 100.297L367.484 63.483ZM354.021 59.613L344.502 96.446L317.833 69.311L354.021 59.613ZM308.098 79.385L334.762 106.516L298.58 116.212L308.098 79.385ZM294.632 75.529L285.116 112.349L258.457 85.223L294.632 75.529ZM248.735 95.31L275.386 122.428L239.198 132.126L248.735 95.31ZM235.274 91.436L225.736 128.257L199.081 101.135L235.274 91.436ZM189.354 111.217L216.011 138.341L179.834 148.036L189.354 111.217ZM175.89 107.35L166.372 144.16L139.707 117.046L175.89 107.35ZM129.97 127.116L156.653 154.248L120.45 163.95L129.97 127.116ZM25.992 189.254L15.577 150.311L116.502 123.265L104.911 168.115L96.399 170.396C94.228 158.87 84.093 150.122 71.947 150.122C58.223 150.122 47.059 161.287 47.059 175.011V183.612L25.992 189.254ZM82.832 175.01V212.654H61.062V175.01C61.062 169.008 65.945 164.125 71.947 164.125C77.949 164.125 82.832 169.008 82.832 175.01ZM34.417 456.972H14.092V436.677H34.417V456.972ZM115.657 485.857C94.04 485.857 76.454 468.271 76.454 446.655C76.454 425.053 94.04 407.48 115.657 407.48C137.258 407.48 154.832 425.053 154.832 446.655C154.832 468.271 137.258 485.857 115.657 485.857ZM281.484 439.653H201.774V257.329H281.484V439.653ZM304.587 439.653H295.488V250.327C295.488 248.47 294.75 246.689 293.438 245.376C292.125 244.063 290.344 243.325 288.487 243.325H194.774C193.855 243.325 192.944 243.506 192.095 243.858C191.245 244.21 190.473 244.726 189.823 245.376C189.173 246.026 188.657 246.798 188.306 247.648C187.954 248.497 187.773 249.408 187.773 250.327V439.653H168.36C164.92 413.63 142.605 393.476 115.658 393.476C88.696 393.476 66.37 413.63 62.928 439.653H48.42V429.675C48.42 427.818 47.6824 426.037 46.3695 424.724C45.0566 423.411 43.2759 422.673 41.419 422.673H14.092V226.658H304.587V439.653ZM331.034 439.653H318.59V274.421H331.034V439.653ZM377.692 198.509C377.692 190.725 384.025 184.393 391.809 184.393C399.593 184.393 405.926 190.725 405.926 198.509V212.654H377.693V198.509H377.692ZM405.67 485.857C384.053 485.857 366.467 468.271 366.467 446.655C366.467 425.053 384.053 407.48 405.67 407.48C427.287 407.48 444.873 425.053 444.873 446.655C444.873 468.271 427.287 485.857 405.67 485.857ZM497.995 456.972H477.67V436.677H497.995V456.972ZM497.995 389.167H473.39V371.14H497.995V389.167ZM497.995 357.136H466.389C465.47 357.136 464.559 357.317 463.71 357.669C462.86 358.021 462.088 358.537 461.438 359.187C460.788 359.837 460.272 360.609 459.921 361.459C459.569 362.308 459.388 363.219 459.388 364.138V396.169C459.388 398.026 460.126 399.807 461.438 401.12C462.751 402.433 464.532 403.171 466.389 403.171H497.995V422.673H470.669C469.75 422.673 468.839 422.854 467.99 423.206C467.14 423.558 466.368 424.074 465.718 424.724C465.068 425.374 464.552 426.146 464.201 426.996C463.849 427.845 463.668 428.756 463.668 429.675V439.653H458.4C454.958 413.63 432.632 393.476 405.67 393.476C378.708 393.476 356.382 413.63 352.94 439.653H345.037V226.658H421.516C463.686 226.658 497.995 260.966 497.995 303.137V357.136ZM75.717 288.538H149.219V302.542H75.717V288.538ZM75.717 309.712H149.219V323.716H75.717V309.712ZM47.059 250.327V340.753C47.059 342.61 47.7966 344.391 49.1095 345.704C50.4224 347.017 52.2031 347.755 54.06 347.755H170.848C171.767 347.755 172.678 347.574 173.527 347.222C174.377 346.87 175.149 346.354 175.799 345.704C176.449 345.054 176.965 344.282 177.316 343.432C177.668 342.583 177.849 341.672 177.849 340.753V250.327C177.849 248.47 177.111 246.689 175.798 245.376C174.486 244.063 172.705 243.325 170.848 243.325H54.061C53.1414 243.325 52.2309 243.506 51.3813 243.858C50.5317 244.21 49.7598 244.725 49.1095 245.376C48.4593 246.026 47.9436 246.798 47.5917 247.647C47.2399 248.497 47.0589 249.407 47.059 250.327ZM61.062 257.329H163.847V333.751H61.062V257.329ZM75.717 267.334H149.219V281.338H75.717V267.334ZM268.615 355.493H214.672V341.489H268.615V355.493ZM268.615 392.57H214.672V378.566H268.615V392.57ZM268.615 429.647H214.672V415.643H268.615V429.647ZM268.615 318.416H214.672V304.412H268.615V318.416ZM268.615 281.338H214.672V267.334H268.615V281.338Z" fill="black"/>
</svg>
