<svg width="37px" height="37px" viewBox="-2.4 -2.4 28.80 28.80" fill="none" xmlns="http://www.w3.org/2000/svg" stroke="rgba(32, 89, 166, 0.70)" stroke-width="0.00024000000000000003" transform="rotate(0)matrix(1, 0, 0, 1, 0, 0)"><g id="SVGRepo_bgCarrier" stroke-width="0"></g><g id="SVGRepo_tracerCarrier" stroke-linecap="round" stroke-linejoin="round" stroke="#CCCCCC" stroke-width="0.144"></g><g id="SVGRepo_iconCarrier"> <path d="M12 16C14.2091 16 16 14.2091 16 12C16 9.79086 14.2091 8 12 8V16Z" fill="rgba(32, 89, 166, 0.70)"></path> <path fill-rule="evenodd" clip-rule="evenodd" d="M12 2C6.47715 2 2 6.47715 2 12C2 17.5228 6.47715 22 12 22C17.5228 22 22 17.5228 22 12C22 6.47715 17.5228 2 12 2ZM12 4V8C9.79086 8 8 9.79086 8 12C8 14.2091 9.79086 16 12 16V20C16.4183 20 20 16.4183 20 12C20 7.58172 16.4183 4 12 4Z" fill="rgba(32, 89, 166, 0.70)"></path> </g></svg>
