<?xml version="1.0" encoding="iso-8859-1"?>
<!-- Uploaded to: SVG Repo, www.svgrepo.com, Generator: SVG Repo Mixer Tools -->
<svg height="800px" width="800px" version="1.1" id="Layer_1" xmlns="http://www.w3.org/2000/svg" xmlns:xlink="http://www.w3.org/1999/xlink" 
	 viewBox="0 0 512.001 512.001" xml:space="preserve">
<polygon style="fill:#4288BC;" points="503.675,268.692 414.779,369.967 97.451,369.967 8.555,268.692 81.697,140.411 
	256.115,80.771 430.533,140.411 "/>
<path style="fill:#3679A3;" d="M135.474,249.81l-18.229,120.157H97.451L8.555,268.692l73.143-128.281
	C81.697,140.411,101.975,216.311,135.474,249.81z"/>
<path style="fill:#808080;" d="M414.779,361.336v5.458c0,34.917-71.039,63.218-158.664,63.218c-26.962,0-52.348-2.678-74.583-7.404
	c0,0,0-0.011-0.011-0.011c-50.03-10.623-84.069-31.631-84.069-55.802v-5.458c0-18.016,58.334-32.948,134.504-35.592h0.011
	c7.866-0.27,15.934-0.416,24.148-0.416C343.74,325.327,414.779,341.452,414.779,361.336z"/>
<path style="fill:#EAB96C;" d="M414.779,331.212v30.124c0-19.884-71.039-36.009-158.664-36.009c-32.464,0-62.644,2.206-87.771,6.009
	c-42.738,6.448-70.892,17.476-70.892,30v-30.124c0-12.524,28.154-23.552,70.892-30c25.127-3.803,55.307-6.009,87.771-6.009
	C343.74,295.204,414.779,311.329,414.779,331.212z"/>
<path style="fill:#4288BC;" d="M414.779,273.193v58.019c0-19.884-71.039-36.009-158.664-36.009c-32.464,0-62.644,2.206-87.771,6.009
	c-42.738,6.448-70.892,17.476-70.892,30v-58.019c0-12.524,28.154-23.552,70.892-30c25.127-3.803,55.307-6.009,87.771-6.009
	C343.74,237.184,414.779,253.298,414.779,273.193z"/>
<path style="fill:#EAB96C;" d="M283.493,109.905l15.495,15.653c-4.962,5.109-7.584,11.838-7.584,18.68
	c0,3.77,0.788,7.551,2.419,11.118l3.488,7.652c8.034,17.566-2.127,37.168-19.422,41.973c-0.371,0.101-0.866,0.214-1.463,0.326
	c-7.967,1.564-15.146,5.818-20.311,12.085c-5.165-6.268-12.356-10.521-20.322-12.085c-0.585-0.113-1.092-0.225-1.452-0.326
	c-17.307-4.805-27.457-24.407-19.434-41.973l3.488-7.652c1.632-3.567,2.431-7.359,2.431-11.118c0-6.842-2.622-13.582-7.596-18.68
	l15.495-15.653c3.747,3.241,8.631,5.199,13.965,5.199c5.086,0,9.756-1.778,13.425-4.749c3.668,2.971,8.327,4.749,13.413,4.749
	C274.873,115.103,279.746,113.145,283.493,109.905z"/>
<path style="fill:#4D4D4D;" d="M181.521,422.596c-50.03-10.623-84.069-31.631-84.069-55.802v-5.458
	c0-18.016,58.334-32.948,134.504-35.592C230.436,326.07,127.609,348.125,181.521,422.596z"/>
<path style="fill:#3679A3;" d="M168.344,243.193v58.019c-42.738,6.448-70.892,17.476-70.892,30v-58.019
	C97.451,260.669,125.606,249.641,168.344,243.193z"/>
<path style="fill:#D8A664;" d="M168.344,301.213v30.124c-42.738,6.448-70.892,17.476-70.892,30v-30.124
	C97.451,318.688,125.606,307.66,168.344,301.213z"/>
<path d="M510.893,265.119L437.75,136.838c-1.018-1.787-2.655-3.141-4.601-3.806l-174.418-59.64c-1.771-0.605-3.69-0.605-5.462,0
	l-174.418,59.64c-1.946,0.665-3.583,2.019-4.601,3.806l-15.012,26.328c-2.309,4.049-0.898,9.204,3.152,11.512
	c4.048,2.308,9.202,0.898,11.512-3.152l13.431-23.555L256,90.298l168.667,57.674l68.582,120.282l-70.143,79.909V306.77
	c9.147-0.476,18.228-1.718,27.092-3.724c4.546-1.029,7.398-5.546,6.37-10.094c-1.029-4.546-5.551-7.399-10.094-6.37
	c-7.646,1.73-15.476,2.824-23.37,3.284v-16.063c0-11.405-10.627-20.634-32.352-27.99c10.205-13.992,28.32-41.066,39.43-70.712
	c1.635-4.365-0.577-9.228-4.942-10.865c-4.363-1.635-9.228,0.576-10.865,4.941c-11.854,31.633-32.948,61.069-41.013,71.7
	c-1.083-0.26-2.184-0.516-3.303-0.771c-30.559-6.934-71.066-10.753-114.059-10.753c-42.998,0-83.506,3.819-114.062,10.753
	c-1.121,0.254-2.224,0.512-3.308,0.772c-8.059-10.617-29.132-40.005-41.012-71.702c-1.635-4.365-6.495-6.576-10.865-4.941
	c-4.365,1.636-6.577,6.5-4.942,10.865c11.111,29.648,29.226,56.723,39.432,70.713c-21.719,7.355-32.344,16.583-32.346,27.986h-0.002
	v16.067c-7.895-0.458-15.726-1.554-23.373-3.284c-4.545-1.03-9.065,1.824-10.094,6.37c-1.028,4.546,1.824,9.065,6.37,10.094
	c8.864,2.005,17.946,3.248,27.095,3.724l0.003,41.4l-70.15-79.917l39.735-69.687c2.309-4.049,0.898-9.202-3.152-11.512
	c-4.048-2.309-9.202-0.898-11.512,3.152L1.107,265.119c-1.782,3.127-1.385,7.042,0.989,9.748l87.584,99.779
	c3.807,17.69,21.575,33.575,51.003,45.301c30.936,12.326,71.892,19.114,115.319,19.114c43.425,0,84.378-6.788,115.316-19.114
	c29.436-11.728,47.205-27.615,51.008-45.309l87.577-99.77C512.278,272.161,512.677,268.246,510.893,265.119z M146.872,256.301
	c29.234-6.492,67.991-10.066,109.13-10.066c41.132,0,79.885,3.574,109.12,10.064c37.755,8.381,41.076,17.372,41.103,17.501h-0.001
	v36.532c-10.178-5.482-24.998-10.122-44.597-13.985c-4.572-0.904-9.01,2.075-9.913,6.648c-0.901,4.573,2.075,9.011,6.648,9.913
	c38.797,7.648,47.605,16.833,47.86,18.9v8.686c-8.66-4.662-20.684-8.725-36.162-12.238c-30.565-6.937-71.071-10.758-114.059-10.758
	c-42.992,0-83.5,3.82-114.063,10.758c-15.478,3.513-27.501,7.576-36.161,12.238v-8.665c0.009-0.086,3.273-9.115,41.142-17.517
	c29.234-6.487,67.973-10.059,109.082-10.059c26.285,0,52.262,1.503,75.123,4.349c4.614,0.574,8.84-2.707,9.416-7.332
	c0.576-4.625-2.706-8.841-7.333-9.417c-23.538-2.929-50.237-4.477-77.206-4.477c-42.992,0-83.501,3.82-114.063,10.758
	c-15.478,3.513-27.501,7.576-36.161,12.238v-36.56C105.788,273.724,109.016,264.706,146.872,256.301z M396.411,385.869
	c-7.113,6.701-17.95,13.062-31.34,18.397c-28.998,11.553-67.731,17.915-109.068,17.915c-88.53,0-150.224-28.869-150.224-54.778
	v-5.451c0.009-0.086,3.275-9.115,41.142-17.517c29.234-6.486,67.972-10.059,109.082-10.059c41.101,0,79.836,3.572,109.071,10.058
	c37.529,8.326,41.08,17.264,41.15,17.501v0.007h0.002l0.001,0.002v5.458C406.228,373.52,402.925,379.733,396.411,385.869z"/>
<path d="M207.118,160.11c-4.736,10.369-4.706,22.216,0.084,32.502c4.836,10.387,13.865,18.081,24.735,21.099
	c0.59,0.167,1.294,0.327,2.117,0.485c6.062,1.191,11.543,4.447,15.435,9.171c1.604,1.946,3.992,3.072,6.513,3.072
	c2.521,0,4.91-1.126,6.513-3.072c3.895-4.726,9.371-7.983,15.359-9.159c0.792-0.149,1.507-0.309,2.123-0.478
	c0.012-0.003,0.025-0.007,0.037-0.01c10.905-3.029,19.933-10.728,24.767-21.121c4.786-10.286,4.812-22.131,0.075-32.484
	l-3.493-7.661c-1.098-2.399-1.654-4.958-1.654-7.607c0-4.803,1.847-9.348,5.198-12.8c3.203-3.297,3.178-8.551-0.056-11.818
	l-15.495-15.653c-3.125-3.155-8.157-3.352-11.518-0.446c-2.377,2.056-5.297,3.143-8.444,3.143c-2.983,0-5.786-0.991-8.102-2.867
	c-3.097-2.508-7.526-2.508-10.621,0c-2.317,1.876-5.122,2.867-8.113,2.867c-3.102,0-6.101-1.116-8.444-3.143
	c-3.36-2.907-8.395-2.709-11.518,0.446l-15.496,15.653c-3.239,3.272-3.259,8.536-0.043,11.831c3.352,3.434,5.197,7.975,5.197,12.785
	c0,2.631-0.56,5.191-1.669,7.617L207.118,160.11z M222.475,167.118l3.486-7.644c2.119-4.636,3.194-9.557,3.194-14.626
	c0-6.404-1.705-12.56-4.896-17.936l5.568-5.625c3.956,1.874,8.309,2.867,12.753,2.867c4.678,0,9.286-1.114,13.423-3.199
	c4.138,2.085,8.742,3.199,13.414,3.199c4.444,0,8.795-0.994,12.753-2.867l5.575,5.632c-3.188,5.38-4.892,11.535-4.892,17.928
	c0,5.089,1.071,10.01,3.179,14.62l3.494,7.661c2.721,5.95,2.712,12.468-0.025,18.354c-2.745,5.9-7.833,10.262-13.961,11.972
	c-0.203,0.054-0.469,0.11-0.851,0.182c-6.861,1.347-13.273,4.328-18.685,8.616c-5.416-4.287-11.839-7.269-18.731-8.623
	c-0.3-0.057-0.563-0.109-0.784-0.17c-6.137-1.704-11.234-6.066-13.983-11.97C219.764,179.601,219.752,173.079,222.475,167.118z"/>
</svg>